<svg width="12" height="9" viewBox="0 0 12 9" fill="none" xmlns="http://www.w3.org/2000/svg">
<path d="M1.22273 8.72443C0.550001 8.72443 0 8.14168 0 7.4289V2.98846C0 2.49722 0.259092 2.05413 0.672728 1.83741C1.08636 1.61587 1.57727 1.66403 1.94546 1.96263L2.14546 2.12156V1.99152C2.14546 1.5051 2.4 1.07165 2.80909 0.859741C3.21818 0.647833 3.7 0.695995 4.06364 0.989777L6.57727 3.04144C6.88636 3.29187 7.31818 3.29187 7.62273 3.04144L10.0409 1.04275C10.4091 0.73934 10.9 0.686363 11.3182 0.903087C11.7364 1.11981 12 1.56289 12 2.05413V7.44817C12 8.12724 11.4773 8.67627 10.8409 8.67627H10.3C10.0091 8.67627 9.72727 8.57513 9.49546 8.39212L2.44091 2.75729V7.43372C2.44091 8.1465 1.89091 8.72925 1.21818 8.72925L1.22273 8.72443ZM1.22273 2.01079C1.08182 2.01079 0.94091 2.0445 0.809092 2.11674C0.49091 2.28531 0.3 2.6128 0.3 2.98846V7.4289C0.3 7.9683 0.713636 8.41139 1.22727 8.41139C1.74091 8.41139 2.15455 7.97312 2.15455 7.4289V2.51648L1.77727 2.21307C1.61364 2.08303 1.42273 2.01561 1.22727 2.01561L1.22273 2.01079ZM2.44546 2.35755L9.67727 8.13687C9.85455 8.28135 10.0773 8.35841 10.3045 8.35841H10.8455C11.3227 8.35841 11.7091 7.94904 11.7091 7.44335V2.04932C11.7091 1.66885 11.5182 1.34617 11.1955 1.1776C10.8727 1.00904 10.5136 1.05239 10.2318 1.28356L7.81364 3.28224C7.4 3.62418 6.81818 3.62418 6.40455 3.28224L3.89091 1.23058C3.61364 1.00422 3.26364 0.965696 2.95 1.12944C2.63636 1.29319 2.45 1.61105 2.45 1.98189V2.34792L2.44546 2.35755Z" fill="white" fill-opacity="0.6"/>
</svg>
