<svg width="120" height="28" viewBox="0 0 120 28" fill="none" xmlns="http://www.w3.org/2000/svg">
<path d="M70.7811 23.3765C70.3973 23.3765 70.0802 23.0594 70.0802 22.6755V8.85632L64.2721 15.6491C64.0051 15.9662 63.6212 16.1498 63.2039 16.1498C62.7867 16.1498 62.4028 15.9662 62.1358 15.6491L56.3277 8.85632V22.6755C56.3277 23.0594 56.0106 23.3765 55.6267 23.3765C55.2429 23.3765 54.9258 23.0594 54.9258 22.6755V7.85493C54.9258 7.421 55.1928 7.05382 55.5934 6.90361C55.9939 6.7534 56.4612 6.85354 56.745 7.18734L63.2039 14.7312L69.6629 7.18734C69.9633 6.85354 70.414 6.73671 70.8145 6.90361C71.2151 7.05382 71.4821 7.43769 71.4821 7.85493V22.6755C71.4821 23.0594 71.165 23.3765 70.7811 23.3765Z" fill="white"/>
<path d="M82.1639 23.3768C77.5409 23.3768 73.7856 19.6216 73.7856 14.9985C73.7856 10.3754 77.5409 6.62018 82.1639 6.62018C86.787 6.62018 90.5422 10.3754 90.5422 14.9985C90.5422 19.6216 86.787 23.3768 82.1639 23.3768ZM82.1639 8.03882C78.3253 8.03882 75.2043 11.1598 75.2043 14.9985C75.2043 18.8371 78.3253 21.9581 82.1639 21.9581C86.0026 21.9581 89.1236 18.8371 89.1236 14.9985C89.1236 11.1598 86.0026 8.03882 82.1639 8.03882Z" fill="white"/>
<path d="M111.572 23.3768C106.949 23.3768 103.194 19.6216 103.194 14.9985C103.194 10.3754 106.949 6.62018 111.572 6.62018C116.195 6.62018 119.95 10.3754 119.95 14.9985C119.95 19.6216 116.195 23.3768 111.572 23.3768ZM111.572 8.03882C107.733 8.03882 104.612 11.1598 104.612 14.9985C104.612 18.8371 107.733 21.9581 111.572 21.9581C115.411 21.9581 118.532 18.8371 118.532 14.9985C118.532 11.1598 115.411 8.03882 111.572 8.03882Z" fill="white"/>
<path d="M102.609 8.38949H91.16C90.7762 8.38949 90.4424 8.07238 90.4424 7.67182C90.4424 7.27127 90.7595 6.95416 91.16 6.95416H102.609C102.993 6.95416 103.327 7.27127 103.327 7.67182C103.327 8.07238 103.01 8.38949 102.609 8.38949Z" fill="white"/>
<path d="M96.8847 23.3763C96.5008 23.3763 96.167 23.0592 96.167 22.6587V9.64058C96.167 9.25671 96.4841 8.92291 96.8847 8.92291C97.2852 8.92291 97.6023 9.24002 97.6023 9.64058V22.6587C97.6023 23.0425 97.2852 23.3763 96.8847 23.3763Z" fill="white"/>
<path d="M4.48957 27.9841C2.01948 27.9841 0 25.9647 0 23.4946V8.10654C0 6.40417 0.951324 4.86871 2.4701 4.11766C3.98888 3.34993 5.79138 3.51683 7.14326 4.5516L7.87761 5.10236V4.65173C7.87761 2.96606 8.81224 1.46397 10.3143 0.72962C11.8164 -0.00473326 13.5855 0.162167 14.9207 1.18025L24.1502 8.29012C25.2851 9.158 26.8707 9.158 27.9889 8.29012L36.8679 1.36384C38.2198 0.312377 40.0223 0.12879 41.5577 0.879833C43.0932 1.63088 44.0612 3.16634 44.0612 4.86871V23.5613C44.0612 25.9146 42.1419 27.8172 39.8053 27.8172H37.8192C36.751 27.8172 35.7163 27.4668 34.8651 26.8325L8.96245 7.30542V23.5113C8.96245 25.9814 6.94298 28.0008 4.47288 28.0008L4.48957 27.9841ZM4.48957 4.7185C3.97219 4.7185 3.4548 4.83532 2.9708 5.08567C1.80251 5.66982 1.10153 6.80473 1.10153 8.10654V23.4946C1.10153 25.3638 2.62031 26.8993 4.50626 26.8993C6.39221 26.8993 7.91099 25.3805 7.91099 23.4946V6.47093L6.52573 5.41947C5.9249 4.96884 5.22392 4.73518 4.50626 4.73518L4.48957 4.7185ZM8.97914 5.92016L35.5327 25.948C36.1836 26.4487 37.0014 26.7157 37.8359 26.7157H39.822C41.5744 26.7157 42.9931 25.2971 42.9931 23.5446V4.85202C42.9931 3.53352 42.2921 2.4153 41.1071 1.83115C39.9221 1.24701 38.6036 1.39722 37.5689 2.19833L28.6899 9.12462C27.1711 10.3096 25.0348 10.3096 23.516 9.12462L14.2865 2.01474C13.2684 1.23032 11.9833 1.0968 10.8317 1.66425C9.68012 2.23171 8.99583 3.33324 8.99583 4.61836V5.88679L8.97914 5.92016Z" fill="#51C947"/>
</svg>
