<svg width="45" height="28" viewBox="0 0 45 28" fill="none" xmlns="http://www.w3.org/2000/svg">
<path d="M4.48957 27.9841C2.01948 27.9841 0 25.9647 0 23.4946V8.10654C0 6.40417 0.951324 4.86871 2.4701 4.11766C3.98888 3.34993 5.79138 3.51683 7.14326 4.5516L7.87761 5.10236V4.65173C7.87761 2.96606 8.81224 1.46397 10.3143 0.72962C11.8164 -0.00473326 13.5855 0.162167 14.9207 1.18025L24.1502 8.29012C25.2851 9.158 26.8707 9.158 27.9889 8.29012L36.8679 1.36384C38.2198 0.312377 40.0223 0.12879 41.5577 0.879833C43.0932 1.63088 44.0612 3.16634 44.0612 4.86871V23.5613C44.0612 25.9146 42.1419 27.8172 39.8053 27.8172H37.8192C36.751 27.8172 35.7163 27.4668 34.8651 26.8325L8.96245 7.30542V23.5113C8.96245 25.9814 6.94298 28.0008 4.47288 28.0008L4.48957 27.9841ZM4.48957 4.7185C3.97219 4.7185 3.4548 4.83532 2.9708 5.08567C1.80251 5.66982 1.10153 6.80473 1.10153 8.10654V23.4946C1.10153 25.3638 2.62031 26.8993 4.50626 26.8993C6.39221 26.8993 7.91099 25.3805 7.91099 23.4946V6.47093L6.52573 5.41947C5.9249 4.96884 5.22392 4.73518 4.50626 4.73518L4.48957 4.7185ZM8.97914 5.92016L35.5327 25.948C36.1836 26.4487 37.0014 26.7157 37.8359 26.7157H39.822C41.5744 26.7157 42.9931 25.2971 42.9931 23.5446V4.85202C42.9931 3.53352 42.2921 2.4153 41.1071 1.83115C39.9221 1.24701 38.6036 1.39722 37.5689 2.19833L28.6899 9.12462C27.1711 10.3096 25.0348 10.3096 23.516 9.12462L14.2865 2.01474C13.2684 1.23032 11.9833 1.0968 10.8317 1.66425C9.68012 2.23171 8.99583 3.33324 8.99583 4.61836V5.88679L8.97914 5.92016Z" fill="#01C705"/>
</svg>
